<?xml version="1.0" encoding="utf-8"?>
<!-- Generator: Adobe Illustrator 27.1.1, SVG Export Plug-In . SVG Version: 6.00 Build 0)  -->
<svg version="1.1" id="Calque_1" xmlns="http://www.w3.org/2000/svg" xmlns:xlink="http://www.w3.org/1999/xlink" x="0px" y="0px"
	 viewBox="0 0 771 365.7" style="enable-background:new 0 0 771 365.7;" xml:space="preserve">
<g>
	<path d="M16.1,89.8C30.9,89.8,45,89.7,59,90c1.3,0,3.1,2.2,3.7,3.8c10.7,27.4,21.3,54.9,31.9,82.3c5.3,13.7,10.7,27.4,15.9,41.2
		c2.3,6,6.1,9.7,12.7,9.9c5.9,0.2,10.2-3.5,12.8-10.4c11.9-30.8,23.6-61.6,35.7-92.3c8.6-21.7,28.4-34.7,51.9-34.7
		c76.1,0,152.3,0,228.4,0c22.9,0,40.4,9.7,50.9,29.9c10.2,19.7,8.2,39.2-4.2,57.7c-0.4,0.5-0.7,1.1-1.1,1.8
		c8.5,11.7,12.7,24.6,11.3,39.1c-2.7,28.3-25.4,49.7-53.9,50c-35.2,0.4-70.4,0.4-105.6,0c-31-0.3-54.5-24.9-54.3-55.9
		c0.2-30.1,24.4-54,55-54.2c33.8-0.2,67.7,0,101.5-0.2c3.1,0,6.5-0.7,9.2-2.1c4.8-2.4,7-8.1,6.1-13.4c-0.9-5.2-5.5-9.6-11.1-10.5
		c-1.7-0.3-3.4-0.2-5.1-0.2c-74.8,0-149.6,0-224.4,0c-9.9,0-13.2,2.2-16.8,11.4c-11.7,30.1-23.3,60.3-35,90.4
		c-8.2,21.1-27.5,34.9-49.3,35.5c-22.9,0.6-44-11.8-52.5-33.1C53.6,187.8,35.2,139.3,16.1,89.8z M402,226.3c16.7,0,33.5,0,50.2,0
		c9.1,0,15-5.1,15-12.9c0.1-7.8-5.8-13.2-14.8-13.2c-33.5,0-66.9,0-100.4,0c-8.8,0-14.9,5.5-14.8,13.2c0.1,7.7,6,12.9,15.1,12.9
		C368.8,226.3,385.4,226.3,402,226.3z"/>
	<path d="M737.1,158.1c0,14.2,0,27.7,0,42.1c-2.2,0-4.3,0-6.4,0c-49.9,0-99.8,0-149.7,0.1c-3,0-6.2,0.4-8.8,1.6
		c-5.4,2.4-7.8,8.1-6.7,14c1,5.4,5.4,9.6,11.1,10.3c1.8,0.2,3.7,0.1,5.6,0.1c49.6,0,99.1,0,148.7,0c2,0,4,0,6.2,0
		c0,14.2,0,27.8,0,41.8c-1.8,0.1-3.5,0.3-5.1,0.3c-50.9,0-101.8,0.1-152.7,0c-35.5-0.1-60.5-29.1-55.4-64.2
		c3.6-25.3,26.4-45.6,52.4-45.9c30.9-0.3,61.9-0.1,92.9-0.1c20.6,0,41.3,0,61.9,0C732.8,158.1,734.6,158.1,737.1,158.1z"/>
	<path d="M523,131.6c0-13.3-0.1-26,0.1-38.7c0-1.1,1.7-2.3,2.8-3c0.7-0.5,2-0.1,3-0.1c67.5,0,135,0,202.5,0c1.8,0,3.6,0,5.7,0
		c0,14.2,0,27.9,0,41.8C665.8,131.6,594.7,131.6,523,131.6z"/>
	<path d="M232.6,158.4c13.9,0,27.4,0,41.3,0c0,36.4,0,72.8,0,109.6c-13.6,0-27.3,0-41.3,0C232.6,231.5,232.6,195.2,232.6,158.4z"/>
</g>
</svg>
